<svg width="12" height="11" viewBox="0 0 12 11" fill="none" xmlns="http://www.w3.org/2000/svg">
<path fill-rule="evenodd" clip-rule="evenodd" d="M7.35449 6.91431H7.85742L11 10.0571L10.0576 11L6.91406 7.85718V7.35425L6.72559 7.16577C6.03418 7.79419 5.0918 8.17139 4.08594 8.17139C1.82324 8.17139 0 6.34863 0 4.08569C0 1.82275 1.82324 0 4.08594 0C6.34863 0 8.17188 1.82275 8.17188 4.08569C8.17188 5.09131 7.79395 6.03418 7.16602 6.72583L7.35449 6.91431ZM1.25684 4.08569C1.25684 5.65698 2.51367 6.91431 4.08496 6.91431C5.65723 6.91431 6.91406 5.65698 6.91406 4.08569C6.91406 2.51416 5.65723 1.25708 4.08496 1.25708C2.51367 1.25708 1.25684 2.51416 1.25684 4.08569Z" transform="translate(0.5)" fill="white"/>
</svg>
